<svg id="Ebene_1" data-name="Ebene 1" xmlns="http://www.w3.org/2000/svg" width="28" height="28"><defs><style>.cls-1{fill:#fff}</style></defs><path class="cls-1" d="M22.16 22.19H5.88c-1.46 0-2.65-1.19-2.65-2.64V8.45c0-1.46 1.19-2.65 2.65-2.65h16.28c1.46 0 2.64 1.19 2.64 2.65v11.09c0 1.46-1.19 2.64-2.64 2.64zM5.88 8.12c-.18 0-.33.15-.33.33v11.09c0 .18.15.33.33.33h16.28c.18 0 .33-.15.33-.33V8.45c0-.18-.15-.33-.33-.33H5.88z"/><path class="cls-1" d="M26.84 22.19H1.16a1.16 1.16 0 010-2.32h25.68a1.16 1.16 0 010 2.32zM14 9.69l1.4 2.84 3.13.45-2.26 2.21.53 3.12-2.8-1.47-2.8 1.47.53-3.12-2.26-2.21 3.13-.45L14 9.69z"/></svg>